<?xml version="1.0"?>
<svg xmlns="http://www.w3.org/2000/svg" height="369.30972" viewBox="0 0 226.22173 369.30972" width="226.22173" fill="#f9d341"><path d="m113.15201 268.98972a5.93 5.93 0 0 1 -4.24-1.76l-107.0700001-107.06a6 6 0 0 1 0-8.49l72.4000001-72.4-18.31-18.31a6 6 0 0 1 0-8.48l50.72-50.7300001a6 6 0 0 1 8.49 0l50.72 50.7300001a6 6 0 0 1 0 8.48l-16 16.06 74.6 74.63a6 6 0 0 1 0 8.49l-107.07 107.08a5.93 5.93 0 0 1 -4.24 1.76zm-98.58-113.06 98.58 98.58 98.58-98.58-74.65-74.66a6 6 0 0 1 0-8.48l16.07-16.06-42.25-42.24-42.24 42.24 18.31 18.31a6 6 0 0 1 0 8.49z" fill="#f9d341"/><path d="m113.15201 268.98972a6 6 0 0 1 -6-5.91l-2.25-155.54a6.0006021 6.0006021 0 0 1 12-.17l2.25 155.53a6 6 0 0 1 -5.91 6.09z" fill="#f9d341"/><path d="m110.90201 113.44972a6 6 0 0 1 -4.25-1.79l-28.17-28.17a6.0033366 6.0033366 0 1 1 8.49-8.49l23.93 23.93 26.18-26.18a6 6 0 0 1 8.48 8.48l-30.41 30.43a6 6 0 0 1 -4.25 1.79z" fill="#f9d341"/><path d="m6.0820099 161.92972a6 6 0 0 1 -5.26000001-8.88l54.09000011-99.19a6 6 0 1 1 10.53 5.74l-54.09 99.2a6 6 0 0 1 -5.2700001 3.13z" fill="#f9d341"/><path d="m220.22201 161.92972a6 6 0 0 1 -5.17-3l-58.6-99.2a6.0026161 6.0026161 0 0 1 10.34-6.1l58.59 99.19a6 6 0 0 1 -5.16 9.06z" fill="#f9d341"/><path d="m110.90201 369.30972a6 6 0 0 1 -4.25-1.75l-50.72-50.73a6 6 0 0 1 0-8.48l18.31-18.31-72.4000001-72.38a6 6 0 0 1 0-8.49l107.0700001-107.08a6 6 0 0 1 8.48 0l107.07 107.06a6 6 0 0 1 0 8.49l-74.65 74.65 16 16.06a6 6 0 0 1 0 8.48l-50.66 50.73a6 6 0 0 1 -4.25 1.75zm-42.24-56.72 42.24 42.24 42.25-42.24-16.05-16.06a6 6 0 0 1 0-8.48l74.65-74.66-98.6-98.58-98.58 98.58 72.4 72.4a6 6 0 0 1 0 8.49z" fill="#f9d341"/><path d="m110.90201 267.86972h-.09a6 6 0 0 1 -5.91-6.08l2.25-155.55a6.000675 6.000675 0 0 1 12 .18l-2.25 155.53a6 6 0 0 1 -6 5.92z" fill="#f9d341"/><path d="m141.32201 298.28972a6 6 0 0 1 -4.24-1.76l-26.18-26.18-23.93 23.93a6.0033366 6.0033366 0 1 1 -8.49-8.49l28.17-28.13a6 6 0 0 1 8.49 0l30.42 30.43a6 6 0 0 1 -4.24 10.24z" fill="#f9d341"/><path d="m60.15201 318.58972a6 6 0 0 1 -5.27-3.13l-54.09000011-99.19a6 6 0 1 1 10.53000011-5.75l54.09 99.2a6 6 0 0 1 -2.39 8.14 6.09 6.09 0 0 1 -2.87.73z" fill="#f9d341"/><path d="m161.61201 318.58972a6 6 0 0 1 -5.16-9.05l58.6-99.2a6.0008541 6.0008541 0 0 1 10.33 6.11l-58.59 99.21a6 6 0 0 1 -5.18 2.93z" fill="#f9d341"/></svg>
